<?xml version="1.0" encoding="UTF-8" ?>
<!DOCTYPE svg PUBLIC "-//W3C//DTD SVG 1.1//EN" "http://www.w3.org/Graphics/SVG/1.1/DTD/svg11.dtd">
<svg width="801pt" height="815pt" viewBox="0 0 801 815" version="1.1" xmlns="http://www.w3.org/2000/svg">
<g id="#000000ff">
<path fill="#FF9B00" opacity="1.00" d=" M 283.11 83.99 C 282.65 72.37 293.42 61.71 305.00 62.06 C 311.21 61.88 317.40 64.89 321.48 69.49 C 325.26 75.33 326.92 82.84 333.79 86.20 C 354.03 100.19 369.79 119.72 382.12 140.82 C 383.74 143.70 384.89 146.80 386.13 149.84 C 399.63 149.05 413.31 148.26 426.68 150.81 C 428.16 146.75 429.60 142.62 431.93 138.95 C 444.87 117.68 461.13 97.88 482.06 84.04 C 485.87 81.53 487.27 76.97 489.37 73.17 C 494.15 62.55 509.35 58.69 518.92 65.12 C 528.44 70.24 532.96 83.22 528.02 93.01 C 523.87 103.07 511.40 108.60 501.12 104.91 C 495.96 103.06 492.01 99.19 488.31 95.32 C 469.78 107.68 455.78 125.39 444.02 144.03 C 441.78 147.54 440.06 151.34 438.69 155.26 C 452.23 161.13 463.97 170.31 474.73 180.28 C 490.74 194.38 503.76 213.11 507.45 234.45 C 513.06 265.62 502.87 298.19 484.29 323.31 C 470.60 337.18 455.86 351.52 437.10 358.15 C 413.29 366.31 386.74 363.09 364.10 352.87 C 328.30 335.12 306.61 296.06 304.20 256.97 C 303.03 242.31 305.71 227.30 312.11 214.05 C 317.91 201.38 327.34 190.86 336.90 180.90 C 347.88 170.24 360.10 160.48 374.17 154.20 C 368.61 141.49 359.95 130.44 351.37 119.65 C 343.83 110.17 334.56 102.27 324.69 95.33 C 319.62 100.83 313.02 106.49 305.00 105.93 C 293.30 106.44 282.56 95.68 283.11 83.99 Z" />
<path fill="#FFC46D" opacity="1.00" d=" M 116.01 283.03 C 132.65 275.16 151.56 273.80 169.69 275.33 C 200.50 279.60 229.71 291.50 257.01 306.03 C 286.54 322.56 314.16 342.24 341.22 362.50 C 304.91 395.13 270.03 429.49 231.22 459.23 C 212.57 473.34 192.84 487.77 169.40 492.45 C 151.16 496.48 132.53 490.51 116.03 482.90 C 94.34 471.41 76.83 453.22 62.43 433.60 C 50.22 416.14 39.28 396.03 40.19 374.04 C 40.22 353.66 53.04 336.42 65.38 321.35 C 78.32 304.21 96.84 292.19 116.01 283.03 Z" />
<path fill="#FFC46D" opacity="1.00" d=" M 587.17 291.16 C 609.68 282.01 633.46 274.76 657.99 274.89 C 687.87 273.78 714.95 290.43 736.89 309.10 C 751.48 325.78 768.24 343.26 772.03 366.02 C 774.34 379.88 771.83 394.28 765.94 406.96 C 755.76 430.06 739.14 449.72 720.66 466.65 C 704.47 481.16 683.99 490.68 662.39 493.35 C 646.53 495.81 631.14 489.44 617.05 482.89 C 584.61 464.19 556.69 438.93 528.64 414.38 C 509.23 397.55 491.11 379.31 471.85 362.33 C 508.38 335.78 545.11 308.43 587.17 291.16 Z" />
<path fill="#FF9B00" opacity="1.00" d=" M 360.15 371.72 C 368.62 374.30 376.99 377.72 385.95 378.20 C 408.26 380.44 431.95 380.95 452.81 371.58 C 456.39 372.25 458.96 375.11 461.54 377.46 C 468.25 384.16 475.79 389.93 483.28 395.72 C 499.95 408.60 515.54 422.81 530.77 437.37 C 527.14 439.29 523.23 440.65 519.16 441.25 C 496.95 444.86 475.11 450.84 452.59 452.44 C 421.62 454.47 390.50 454.87 359.54 452.58 C 337.79 451.07 316.82 444.79 295.29 441.78 C 290.63 441.37 286.29 439.68 282.33 437.29 C 292.55 427.16 303.32 417.61 314.17 408.17 C 325.79 398.06 338.77 389.57 350.02 379.02 C 353.06 376.25 355.80 372.32 360.15 371.72 Z" />
<path fill="#FF9B00" opacity="1.00" d=" M 406.00 473.01 C 453.87 472.14 502.38 471.19 548.97 458.92 C 558.21 473.66 561.20 492.29 556.30 509.05 C 530.43 511.91 504.90 517.21 479.05 520.17 C 454.16 522.87 429.07 524.50 404.03 523.42 C 365.50 525.05 327.03 520.35 289.13 513.79 C 281.26 512.24 273.17 512.12 265.33 510.50 C 260.64 509.66 261.87 503.14 260.86 499.99 C 258.86 486.06 262.74 471.79 270.03 459.92 C 314.39 471.37 360.52 471.49 406.00 473.01 Z" />
<path fill="#FF9B00" opacity="1.00" d=" M 259.86 527.40 C 269.09 530.65 278.96 531.21 288.43 533.45 C 313.18 539.45 338.50 543.21 363.99 543.82 C 415.34 545.12 467.66 547.22 517.99 534.96 C 529.63 532.04 541.81 531.47 553.15 527.36 C 543.88 554.09 534.18 580.82 520.99 605.91 C 513.30 623.96 501.20 639.68 488.50 654.48 C 474.55 670.12 457.77 682.99 439.90 693.82 C 427.82 699.53 415.07 706.16 401.18 703.59 C 388.96 700.87 376.72 696.86 366.35 689.64 C 338.96 672.63 316.58 648.44 299.74 621.09 C 296.56 616.36 294.48 611.04 292.02 605.94 C 278.74 580.89 269.28 554.07 259.86 527.40 Z" />
</g>
</svg>
