<?xml version="1.0" encoding="UTF-8" ?>
<!DOCTYPE svg PUBLIC "-//W3C//DTD SVG 1.1//EN" "http://www.w3.org/Graphics/SVG/1.1/DTD/svg11.dtd">
<svg width="232pt" height="193pt" viewBox="0 0 232 193" version="1.1" xmlns="http://www.w3.org/2000/svg">
<g id="#cececeff">
<path fill="#cecece" opacity="1.00" d=" M 78.33 9.31 C 82.63 7.43 87.20 5.48 92.01 5.97 C 101.54 6.93 109.72 13.37 114.62 21.38 C 119.39 29.70 122.09 39.21 122.18 48.80 C 123.36 51.89 122.90 55.20 123.08 58.42 C 123.99 57.33 124.27 55.93 124.62 54.60 C 126.86 41.34 132.19 28.31 141.26 18.26 C 143.95 16.27 146.58 14.21 149.37 12.36 C 157.30 8.21 167.62 7.44 175.21 12.78 C 178.43 15.97 182.49 18.86 183.41 23.60 C 186.28 29.83 184.91 36.84 183.15 43.16 C 179.90 52.27 173.73 60.29 165.73 65.73 C 159.95 70.41 153.12 73.33 146.62 76.80 C 151.70 78.69 156.50 81.22 161.34 83.67 C 165.91 86.05 169.47 89.94 173.97 92.42 C 173.99 92.78 174.03 93.50 174.06 93.87 C 175.80 112.77 175.66 131.97 171.63 150.59 C 170.12 158.61 167.56 166.37 165.05 174.12 C 163.19 176.78 159.64 177.47 156.88 178.88 C 149.88 182.12 142.23 183.34 134.78 185.05 C 146.51 162.65 151.32 137.16 151.34 112.01 C 151.19 100.93 150.22 89.72 147.01 79.07 C 146.58 76.86 144.19 76.31 142.38 75.67 C 135.72 73.76 128.92 71.88 121.92 71.97 C 128.65 94.16 128.59 117.89 124.66 140.59 C 121.98 156.16 117.14 171.52 108.95 185.11 C 101.49 183.52 93.55 182.94 86.73 179.28 C 94.56 166.14 98.55 151.10 101.13 136.14 C 104.41 114.94 104.70 92.84 98.76 72.07 C 96.24 72.35 93.73 72.67 91.20 72.85 C 87.39 68.65 83.16 64.85 79.27 60.72 C 73.98 53.69 69.39 45.77 68.05 36.94 C 67.81 30.77 67.54 24.23 70.63 18.64 C 72.13 14.77 75.32 12.00 78.33 9.31 Z" />
<path fill="#cecece" opacity="1.00" d=" M 53.24 93.24 C 59.78 86.00 68.20 80.79 77.15 77.06 C 80.90 95.37 80.59 114.31 77.71 132.72 C 75.69 145.20 72.48 157.59 67.18 169.10 C 59.15 165.08 53.35 157.95 48.17 150.83 C 42.48 141.78 38.90 130.96 40.18 120.19 C 41.32 116.01 41.44 111.48 43.65 107.66 C 46.17 102.45 48.74 97.06 53.24 93.24 M 54.94 101.95 C 55.06 105.44 59.19 105.47 61.53 106.85 C 58.67 110.40 53.28 111.98 52.04 116.66 C 56.28 117.64 60.54 119.65 64.96 119.04 C 65.73 115.26 60.43 115.84 58.10 114.78 C 60.65 112.07 63.90 110.16 66.62 107.64 C 67.75 106.88 67.73 105.48 67.97 104.29 C 63.74 103.00 59.42 101.65 54.94 101.95 Z" />
</g>
<g id="#929292ff">
<path fill="#929292" opacity="1.00" d=" M 24.09 47.03 C 28.42 46.08 32.43 48.93 36.60 49.71 C 36.64 50.61 36.60 51.51 36.48 52.40 C 33.39 55.12 29.27 56.60 26.74 59.94 C 29.15 61.01 33.70 61.11 32.91 64.84 C 28.66 64.28 24.32 63.17 20.59 61.01 L 20.29 60.03 C 23.13 56.62 27.41 54.91 30.64 51.92 C 28.80 50.97 26.81 50.37 24.76 50.11 C 24.53 49.08 24.31 48.06 24.09 47.03 Z" />
<path fill="#929292" opacity="1.00" d=" M 40.79 57.70 C 41.67 54.75 45.56 55.41 47.95 54.69 C 47.31 57.14 46.37 59.50 45.23 61.75 C 46.72 61.67 48.22 61.64 49.71 61.65 C 48.26 63.99 45.13 64.03 42.70 64.44 C 43.21 62.15 43.99 59.93 44.63 57.68 C 43.67 57.68 41.75 57.69 40.79 57.70 Z" />
<path fill="#929292" opacity="1.00" d=" M 91.20 72.85 C 93.73 72.67 96.24 72.35 98.76 72.07 C 104.70 92.84 104.41 114.94 101.13 136.14 C 98.55 151.10 94.56 166.14 86.73 179.28 C 79.83 176.72 73.13 173.47 67.18 169.10 C 72.48 157.59 75.69 145.20 77.71 132.72 C 80.59 114.31 80.90 95.37 77.15 77.06 C 82.25 76.89 86.21 73.02 91.20 72.85 Z" />
<path fill="#929292" opacity="1.00" d=" M 121.92 71.97 C 128.92 71.88 135.72 73.76 142.38 75.67 C 144.19 76.31 146.58 76.86 147.01 79.07 C 150.22 89.72 151.19 100.93 151.34 112.01 C 151.32 137.16 146.51 162.65 134.78 185.05 C 126.17 184.99 117.55 184.89 108.95 185.11 C 117.14 171.52 121.98 156.16 124.66 140.59 C 128.59 117.89 128.65 94.16 121.92 71.97 Z" />
<path fill="#929292" opacity="1.00" d=" M 41.86 75.95 C 45.18 74.83 48.54 72.55 52.08 72.90 C 52.94 77.63 49.69 82.12 49.10 86.83 C 51.08 86.10 53.03 85.29 55.06 84.71 C 56.48 83.55 58.34 86.96 56.34 87.32 C 52.61 89.06 48.77 90.80 44.67 91.39 C 44.63 86.71 46.83 82.45 47.88 77.97 C 45.32 78.20 42.67 80.07 40.15 79.00 C 39.96 77.67 40.35 76.21 41.86 75.95 Z" />
<path fill="#929292" opacity="1.00" d=" M 23.83 77.13 C 26.56 76.92 29.30 77.08 32.02 77.32 C 30.70 80.12 28.63 82.44 26.91 84.98 C 28.59 85.10 30.26 85.21 31.94 85.34 C 31.86 86.58 31.22 87.19 30.01 87.17 C 27.66 87.42 25.30 87.18 22.97 86.83 C 24.30 84.14 26.31 81.89 28.05 79.48 C 26.63 79.15 22.14 79.74 23.83 77.13 Z" />
<path fill="#929292" opacity="1.00" d=" M 174.06 93.87 C 180.26 98.87 185.24 105.31 188.35 112.66 C 190.41 115.85 190.17 120.24 193.20 122.81 C 195.78 125.61 199.60 126.57 203.00 128.00 C 211.05 131.39 219.46 133.92 227.33 137.72 C 217.59 140.03 207.59 140.89 197.76 142.73 C 195.87 143.01 193.94 143.27 192.28 144.27 C 189.96 146.57 189.08 149.79 187.62 152.61 C 182.10 161.48 174.60 169.63 165.05 174.12 C 167.56 166.37 170.12 158.61 171.63 150.59 C 175.66 131.97 175.80 112.77 174.06 93.87 Z" />
<path fill="#929292" opacity="1.00" d=" M 54.94 101.95 C 59.42 101.65 63.74 103.00 67.97 104.29 C 67.73 105.48 67.75 106.88 66.62 107.64 C 63.90 110.16 60.65 112.07 58.10 114.78 C 60.43 115.84 65.73 115.26 64.96 119.04 C 60.54 119.65 56.28 117.64 52.04 116.66 C 53.28 111.98 58.67 110.40 61.53 106.85 C 59.19 105.47 55.06 105.44 54.94 101.95 Z" />
</g>
</svg>
